<?xml version="1.0" encoding="UTF-8"?>
<svg width="529px" height="289px" viewBox="0 0 529 289" version="1.1" xmlns="http://www.w3.org/2000/svg" xmlns:xlink="http://www.w3.org/1999/xlink">
    <title>top banner</title>
    <defs>
        <rect id="path-1" x="0" y="0" width="529" height="289"></rect>
        <filter x="-38.7%" y="-33.6%" width="161.5%" height="174.9%" filterUnits="objectBoundingBox" id="filter-3">
            <feOffset dx="0" dy="2" in="SourceAlpha" result="shadowOffsetOuter1"></feOffset>
            <feGaussianBlur stdDeviation="10" in="shadowOffsetOuter1" result="shadowBlurOuter1"></feGaussianBlur>
            <feColorMatrix values="0 0 0 0 0.730489537   0 0 0 0 0.730489537   0 0 0 0 0.730489537  0 0 0 0.454349118 0" type="matrix" in="shadowBlurOuter1" result="shadowMatrixOuter1"></feColorMatrix>
            <feMerge>
                <feMergeNode in="shadowMatrixOuter1"></feMergeNode>
                <feMergeNode in="SourceGraphic"></feMergeNode>
            </feMerge>
        </filter>
        <path d="M262.330927,26.0189537 L262.330927,271.018954 L262.330927,271.018954 L56.3309268,271.018954 L56.3309268,26.0189537 C56.3309268,23.8098147 58.1217878,22.0189537 60.3309268,22.0189537 L258.330927,22.0189537 C260.540066,22.0189537 262.330927,23.8098147 262.330927,26.0189537 Z" id="path-4"></path>
        <filter x="-12.9%" y="-8.6%" width="125.7%" height="121.3%" filterUnits="objectBoundingBox" id="filter-5">
            <feMorphology radius="2" operator="dilate" in="SourceAlpha" result="shadowSpreadOuter1"></feMorphology>
            <feOffset dx="0" dy="5" in="shadowSpreadOuter1" result="shadowOffsetOuter1"></feOffset>
            <feGaussianBlur stdDeviation="6" in="shadowOffsetOuter1" result="shadowBlurOuter1"></feGaussianBlur>
            <feColorMatrix values="0 0 0 0 0   0 0 0 0 0.133333333   0 0 0 0 0.396078431  0 0 0 0.04 0" type="matrix" in="shadowBlurOuter1" result="shadowMatrixOuter1"></feColorMatrix>
            <feOffset dx="0" dy="3" in="SourceAlpha" result="shadowOffsetOuter2"></feOffset>
            <feGaussianBlur stdDeviation="3" in="shadowOffsetOuter2" result="shadowBlurOuter2"></feGaussianBlur>
            <feColorMatrix values="0 0 0 0 0   0 0 0 0 0.133333333   0 0 0 0 0.396078431  0 0 0 0.04 0" type="matrix" in="shadowBlurOuter2" result="shadowMatrixOuter2"></feColorMatrix>
            <feMorphology radius="1" operator="erode" in="SourceAlpha" result="shadowSpreadOuter3"></feMorphology>
            <feOffset dx="0" dy="1" in="shadowSpreadOuter3" result="shadowOffsetOuter3"></feOffset>
            <feGaussianBlur stdDeviation="1" in="shadowOffsetOuter3" result="shadowBlurOuter3"></feGaussianBlur>
            <feColorMatrix values="0 0 0 0 0   0 0 0 0 0.133333333   0 0 0 0 0.396078431  0 0 0 0.04 0" type="matrix" in="shadowBlurOuter3" result="shadowMatrixOuter3"></feColorMatrix>
            <feMerge>
                <feMergeNode in="shadowMatrixOuter1"></feMergeNode>
                <feMergeNode in="shadowMatrixOuter2"></feMergeNode>
                <feMergeNode in="shadowMatrixOuter3"></feMergeNode>
            </feMerge>
        </filter>
        <path d="M243.133126,22.9909403 L243.133126,290.99094 L243.133126,290.99094 L37.1331262,290.99094 L37.1331262,22.9909403 C37.1331262,20.7818013 38.9239872,18.9909403 41.1331262,18.9909403 L239.133126,18.9909403 C241.342265,18.9909403 243.133126,20.7818013 243.133126,22.9909403 Z" id="path-6"></path>
        <filter x="-12.9%" y="-7.9%" width="125.7%" height="119.5%" filterUnits="objectBoundingBox" id="filter-7">
            <feMorphology radius="2" operator="dilate" in="SourceAlpha" result="shadowSpreadOuter1"></feMorphology>
            <feOffset dx="0" dy="5" in="shadowSpreadOuter1" result="shadowOffsetOuter1"></feOffset>
            <feGaussianBlur stdDeviation="6" in="shadowOffsetOuter1" result="shadowBlurOuter1"></feGaussianBlur>
            <feColorMatrix values="0 0 0 0 0   0 0 0 0 0.133333333   0 0 0 0 0.396078431  0 0 0 0.04 0" type="matrix" in="shadowBlurOuter1" result="shadowMatrixOuter1"></feColorMatrix>
            <feOffset dx="0" dy="3" in="SourceAlpha" result="shadowOffsetOuter2"></feOffset>
            <feGaussianBlur stdDeviation="3" in="shadowOffsetOuter2" result="shadowBlurOuter2"></feGaussianBlur>
            <feColorMatrix values="0 0 0 0 0   0 0 0 0 0.133333333   0 0 0 0 0.396078431  0 0 0 0.04 0" type="matrix" in="shadowBlurOuter2" result="shadowMatrixOuter2"></feColorMatrix>
            <feMorphology radius="1" operator="erode" in="SourceAlpha" result="shadowSpreadOuter3"></feMorphology>
            <feOffset dx="0" dy="1" in="shadowSpreadOuter3" result="shadowOffsetOuter3"></feOffset>
            <feGaussianBlur stdDeviation="1" in="shadowOffsetOuter3" result="shadowBlurOuter3"></feGaussianBlur>
            <feColorMatrix values="0 0 0 0 0   0 0 0 0 0.133333333   0 0 0 0 0.396078431  0 0 0 0.04 0" type="matrix" in="shadowBlurOuter3" result="shadowMatrixOuter3"></feColorMatrix>
            <feMerge>
                <feMergeNode in="shadowMatrixOuter1"></feMergeNode>
                <feMergeNode in="shadowMatrixOuter2"></feMergeNode>
                <feMergeNode in="shadowMatrixOuter3"></feMergeNode>
            </feMerge>
        </filter>
        <path d="M206,4 L206,282 L206,282 L0,282 L0,4 C-7.1463071e-16,1.790861 1.790861,4.05812251e-16 4,0 L202,0 C204.209139,-4.05812251e-16 206,1.790861 206,4 Z" id="path-8"></path>
        <filter x="-49.5%" y="-31.9%" width="199.0%" height="172.3%" filterUnits="objectBoundingBox" id="filter-9">
            <feMorphology radius="8" operator="dilate" in="SourceAlpha" result="shadowSpreadOuter1"></feMorphology>
            <feOffset dx="0" dy="12" in="shadowSpreadOuter1" result="shadowOffsetOuter1"></feOffset>
            <feGaussianBlur stdDeviation="24" in="shadowOffsetOuter1" result="shadowBlurOuter1"></feGaussianBlur>
            <feColorMatrix values="0 0 0 0 0   0 0 0 0 0.133333333   0 0 0 0 0.396078431  0 0 0 0.03 0" type="matrix" in="shadowBlurOuter1" result="shadowMatrixOuter1"></feColorMatrix>
            <feOffset dx="0" dy="9" in="SourceAlpha" result="shadowOffsetOuter2"></feOffset>
            <feGaussianBlur stdDeviation="14" in="shadowOffsetOuter2" result="shadowBlurOuter2"></feGaussianBlur>
            <feColorMatrix values="0 0 0 0 0   0 0 0 0 0.133333333   0 0 0 0 0.396078431  0 0 0 0.05 0" type="matrix" in="shadowBlurOuter2" result="shadowMatrixOuter2"></feColorMatrix>
            <feMorphology radius="4" operator="erode" in="SourceAlpha" result="shadowSpreadOuter3"></feMorphology>
            <feOffset dx="0" dy="6" in="shadowSpreadOuter3" result="shadowOffsetOuter3"></feOffset>
            <feGaussianBlur stdDeviation="8" in="shadowOffsetOuter3" result="shadowBlurOuter3"></feGaussianBlur>
            <feColorMatrix values="0 0 0 0 0   0 0 0 0 0.133333333   0 0 0 0 0.396078431  0 0 0 0.08 0" type="matrix" in="shadowBlurOuter3" result="shadowMatrixOuter3"></feColorMatrix>
            <feMerge>
                <feMergeNode in="shadowMatrixOuter1"></feMergeNode>
                <feMergeNode in="shadowMatrixOuter2"></feMergeNode>
                <feMergeNode in="shadowMatrixOuter3"></feMergeNode>
            </feMerge>
        </filter>
    </defs>
    <g id="页面-1" stroke="none" stroke-width="1" fill="none" fill-rule="evenodd">
        <g id="登录前（纵向排版）" transform="translate(-757.000000, -97.000000)">
            <g id="top-banner" transform="translate(757.000000, 97.000000)">
                <mask id="mask-2" fill="white">
                    <use xlink:href="#path-1"></use>
                </mask>
                <g id="蒙版"></g>
                <g id="编组-15" mask="url(#mask-2)">
                    <g transform="translate(42.000000, 19.000000)">
                        <g id="编组-11" transform="translate(136.330927, 66.018954)">
                            <path d="M8,0 L325,0 C329.418278,-8.11624501e-16 333,3.581722 333,8 L333,205 L333,205 L0,205 L0,8 C-5.41083001e-16,3.581722 3.581722,8.11624501e-16 8,0 Z" id="矩形" fill="#143550"></path>
                            <g id="编组-10" opacity="0.5" transform="translate(155.000000, 39.000000)">
                                <rect id="矩形" fill="#4E7190" x="0" y="0" width="8" height="8"></rect>
                                <rect id="矩形" fill="#7D93FF" x="16" y="0" width="27" height="8"></rect>
                                <rect id="矩形" fill="#FFFFFF" x="51" y="0" width="27" height="8"></rect>
                                <rect id="矩形" fill="#7D93FF" x="86" y="0" width="47" height="8"></rect>
                            </g>
                            <g id="编组-10" transform="translate(155.000000, 57.000000)">
                                <rect id="矩形" fill="#4E7190" x="0" y="0" width="8" height="8"></rect>
                                <rect id="矩形" fill="#7D93FF" x="16" y="0" width="27" height="8"></rect>
                                <rect id="矩形" fill="#FFFFFF" x="51" y="0" width="27" height="8"></rect>
                                <rect id="矩形" fill="#FB9D3F" x="86" y="0" width="47" height="8"></rect>
                            </g>
                            <g id="编组-10" transform="translate(155.000000, 75.000000)" fill="#4E7190">
                                <rect id="矩形" x="0" y="0" width="8" height="8"></rect>
                            </g>
                            <g id="编组-10" transform="translate(155.000000, 93.000000)" fill="#4E7190">
                                <rect id="矩形" x="0" y="0" width="8" height="8"></rect>
                            </g>
                            <g id="编组-10" transform="translate(155.000000, 111.000000)">
                                <rect id="矩形" fill="#4E7190" x="0" y="0" width="8" height="8"></rect>
                                <rect id="矩形" fill="#7D93FF" x="16" y="0" width="27" height="8"></rect>
                                <rect id="矩形" fill="#FFFFFF" x="51" y="0" width="93" height="8"></rect>
                            </g>
                            <g id="编组-10" opacity="0.600000024" transform="translate(155.000000, 129.000000)">
                                <rect id="矩形" fill="#4E7190" x="0" y="0" width="8" height="8"></rect>
                                <rect id="矩形" fill="#7D93FF" x="16" y="0" width="27" height="8"></rect>
                                <rect id="矩形" fill="#FFE552" x="51" y="0" width="27" height="8"></rect>
                                <rect id="矩形" fill="#7D93FF" x="86" y="0" width="47" height="8"></rect>
                            </g>
                            <g id="编组-10" opacity="0.200000003" transform="translate(155.000000, 147.000000)">
                                <rect id="矩形" fill="#4E7190" x="0" y="0" width="8" height="8"></rect>
                                <rect id="矩形" fill="#7D93FF" x="16" y="0" width="27" height="8"></rect>
                                <rect id="矩形" fill="#FFFFFF" x="51" y="0" width="27" height="8"></rect>
                                <rect id="矩形" fill="#7D93FF" x="86" y="0" width="47" height="8"></rect>
                            </g>
                            <g id="编组-10" transform="translate(155.000000, 165.000000)">
                                <rect id="矩形" fill="#4E7190" x="0" y="0" width="8" height="8"></rect>
                                <rect id="矩形" fill="#FFFFFF" x="16" y="0" width="27" height="8"></rect>
                                <rect id="矩形" fill="#FFFFFF" x="51" y="0" width="27" height="8"></rect>
                                <rect id="矩形" fill="#FFFFFF" x="86" y="0" width="47" height="8"></rect>
                            </g>
                            <g id="编组" transform="translate(160.000000, 10.000000)">
                                <circle id="椭圆形" fill="#FF7875" cx="4" cy="4" r="4"></circle>
                                <circle id="椭圆形" fill="#FFE552" cx="16" cy="4" r="4"></circle>
                                <circle id="椭圆形" fill="#389E0D" cx="28" cy="4" r="4"></circle>
                            </g>
                        </g>
                        <g id="编组-14" filter="url(#filter-3)">
                            <path d="M256.330927,10.0189537 C265.167483,10.0189537 272.330927,17.1823977 272.330927,26.0189537 L272.330927,47.0189537 L281.330927,47.0189537 C287.958344,47.0189537 293.330927,52.3915367 293.330927,59.0189537 L293.330927,107.018954 C293.330927,113.646371 287.958344,119.018954 281.330927,119.018954 L272.330927,119.018954 L272.330927,271.018954 L46.3309268,271.018954 L46.3309268,26.0189537 C46.3309268,17.1823977 53.4943708,10.0189537 62.3309268,10.0189537 L256.330927,10.0189537 Z" id="形状结合" fill="#FFD629"></path>
                            <g id="矩形" fill-rule="nonzero">
                                <use fill="black" fill-opacity="1" filter="url(#filter-5)" xlink:href="#path-4"></use>
                                <use fill="#FFFFFF" xlink:href="#path-4"></use>
                            </g>
                            <g id="矩形" fill-rule="nonzero" transform="translate(140.133126, 154.990940) rotate(-4.000000) translate(-140.133126, -154.990940) ">
                                <use fill="black" fill-opacity="1" filter="url(#filter-7)" xlink:href="#path-6"></use>
                                <use fill="#FFFFFF" xlink:href="#path-6"></use>
                            </g>
                            <g id="编组-13" transform="translate(121.621018, 153.962627) rotate(-8.000000) translate(-121.621018, -153.962627) translate(18.621018, 12.962627)">
                                <g id="矩形">
                                    <use fill="black" fill-opacity="1" filter="url(#filter-9)" xlink:href="#path-8"></use>
                                    <use fill="#FFFFFF" fill-rule="evenodd" xlink:href="#path-8"></use>
                                </g>
                                <rect id="矩形" fill="#D8D8D8" opacity="0.5" x="45" y="17" width="117" height="14"></rect>
                                <rect id="矩形" fill="#D8D8D8" opacity="0.5" x="18" y="163" width="171" height="6"></rect>
                                <g id="编组-12" opacity="0.5" transform="translate(49.000000, 218.000000) rotate(12.000000) translate(-49.000000, -218.000000) translate(20.000000, 189.000000)">
                                    <circle id="椭圆形" stroke="#D8D8D8" stroke-width="3" cx="29" cy="29" r="27.5"></circle>
                                    <circle id="椭圆形" stroke="#D8D8D8" cx="29" cy="29" r="22.5"></circle>
                                    <path d="M28.5346589,36.7446443 L21.9766934,40.1923708 C21.4878488,40.4493716 20.8832216,40.2614251 20.6262208,39.7725805 C20.5238817,39.57792 20.4885671,39.354952 20.5257439,39.1381943 L21.7782039,31.8357924 C21.8338418,31.5113983 21.7262933,31.1803982 21.4906072,30.950661 L16.1851017,25.7790712 C15.7896181,25.39357 15.7815258,24.7604568 16.167027,24.3649732 C16.3205356,24.2074896 16.521678,24.1050024 16.7393151,24.0733779 L24.0713434,23.0079718 C24.3970536,22.9606433 24.6786192,22.756074 24.8242812,22.4609305 L28.1032639,15.8169858 C28.3476862,15.3217321 28.9473121,15.1183931 29.4425657,15.3628154 C29.6397783,15.4601456 29.7994058,15.6197731 29.8967361,15.8169858 L33.1757188,22.4609305 C33.3213808,22.756074 33.6029464,22.9606433 33.9286566,23.0079718 L41.2606849,24.0733779 C41.8072298,24.1527955 42.1859112,24.6602383 42.1064936,25.2067832 C42.0748691,25.4244202 41.9723819,25.6255626 41.8148983,25.7790712 L36.5093928,30.950661 C36.2737067,31.1803982 36.1661582,31.5113983 36.2217961,31.8357924 L37.4742561,39.1381943 C37.5676171,39.6825308 37.2020293,40.1994867 36.6576928,40.2928477 C36.4409352,40.3300246 36.2179671,40.2947099 36.0233066,40.1923708 L29.4653411,36.7446443 C29.1740171,36.5914862 28.8259829,36.5914862 28.5346589,36.7446443 Z" id="星形" fill="#D8D8D8"></path>
                                </g>
                                <rect id="矩形" fill="#D8D8D8" opacity="0.5" x="18" y="149" width="162" height="6"></rect>
                                <rect id="矩形" fill="#D8D8D8" opacity="0.5" x="18" y="135" width="171" height="6"></rect>
                                <rect id="矩形" fill="#D8D8D8" opacity="0.5" x="18" y="121" width="130" height="6"></rect>
                                <rect id="矩形" fill="#D8D8D8" opacity="0.5" x="18" y="107" width="171" height="6"></rect>
                                <rect id="矩形" fill="#D8D8D8" opacity="0.5" x="18" y="93" width="171" height="6"></rect>
                                <rect id="矩形" fill="#D8D8D8" opacity="0.5" x="18" y="75" width="154" height="6"></rect>
                                <rect id="矩形" fill="#D8D8D8" opacity="0.5" x="18" y="61" width="171" height="6"></rect>
                                <rect id="矩形" fill="#D8D8D8" opacity="0.5" x="18" y="47" width="171" height="6"></rect>
                                <path d="M112.813777,225.679403 C115.271346,222.18087 119.074774,219.687902 122.417867,217.022736 C126.466715,213.794932 147.109126,197.838439 141.270563,217.022736 C140.597004,219.235908 138.173763,222.548621 139.684607,224.300523 C147.645177,233.531219 154.328219,202.606845 161.487236,214.47527 C164.003766,218.647245 158.854697,230.046615 167.384304,224.261599 C169.150753,223.063543 169.814708,220.553899 171.676272,219.509744 C172.572312,219.007154 175.996118,227.157232 177,227.375647" id="路径-4" stroke="#EFEFEF" stroke-width="5" stroke-linecap="round"></path>
                            </g>
                            <g id="Docs" transform="translate(280.330927, 84.338954) rotate(-270.000000) translate(-280.330927, -84.338954) translate(257.410927, 77.058954)" fill="#B3890B" fill-opacity="0.9" fill-rule="nonzero">
                                <path d="M-2.84217094e-14,2.27373675e-13 L-2.84217094e-14,14.28 L5.16,14.28 C7.46,14.28 9.2,13.64 10.4,12.36 C11.54,11.12 12.12,9.38 12.12,7.14 C12.12,4.88 11.56,3.14 10.44,1.94 C9.24,0.64 7.5,2.27373675e-13 5.2,2.27373675e-13 L-2.84217094e-14,2.27373675e-13 Z M2.18,1.86 L4.8,1.86 C6.6,1.86 7.92,2.28 8.76,3.14 C9.56,3.98 9.98,5.3 9.98,7.14 C9.98,8.94 9.56,10.26 8.74,11.12 C7.9,11.98 6.56,12.42 4.76,12.42 L2.18,12.42 L2.18,1.86 Z" id="形状"></path>
                                <path d="M18.9,3.66 C17.34,3.66 16.08,4.18 15.14,5.22 C14.2,6.24 13.74,7.54 13.74,9.12 C13.74,10.68 14.2,11.98 15.12,12.98 C16.08,14.02 17.34,14.56 18.9,14.56 C20.46,14.56 21.72,14.02 22.68,12.98 C23.6,11.98 24.06,10.68 24.06,9.12 C24.06,7.54 23.58,6.24 22.66,5.22 C21.72,4.18 20.46,3.66 18.9,3.66 Z M18.9,5.4 C19.88,5.4 20.64,5.78 21.2,6.56 C21.68,7.22 21.92,8.08 21.92,9.12 C21.92,10.14 21.68,10.98 21.2,11.66 C20.64,12.42 19.88,12.82 18.9,12.82 C17.92,12.82 17.16,12.42 16.62,11.66 C16.14,11 15.92,10.16 15.92,9.12 C15.92,8.08 16.14,7.22 16.62,6.56 C17.16,5.78 17.92,5.4 18.9,5.4 Z" id="形状"></path>
                                <path d="M30.68,3.66 C29.08,3.66 27.84,4.2 26.94,5.28 C26.1,6.28 25.68,7.56 25.68,9.12 C25.68,10.72 26.1,12 26.96,13 C27.84,14.04 29.06,14.56 30.64,14.56 C31.96,14.56 33.04,14.22 33.84,13.56 C34.64,12.88 35.18,11.84 35.42,10.46 L33.32,10.46 C33.12,12.02 32.24,12.82 30.66,12.82 C29.74,12.82 29.06,12.48 28.6,11.84 C28.1,11.18 27.86,10.26 27.86,9.1 C27.86,7.94 28.1,7.02 28.62,6.38 C29.12,5.72 29.8,5.4 30.68,5.4 C31.4,5.4 31.98,5.56 32.42,5.9 C32.86,6.22 33.14,6.74 33.28,7.44 L35.38,7.44 C35.18,6.16 34.66,5.2 33.86,4.56 C33.06,3.96 32,3.66 30.68,3.66 Z" id="路径"></path>
                                <path d="M41.1,3.66 C39.86,3.66 38.84,3.92 38.06,4.46 C37.28,4.98 36.9,5.72 36.9,6.66 C36.9,7.54 37.3,8.24 38.1,8.74 C38.58,9.06 39.44,9.36 40.66,9.64 C41.72,9.88 42.42,10.08 42.74,10.24 C43.34,10.52 43.66,10.92 43.66,11.42 C43.66,12.34 42.82,12.82 41.18,12.82 C40.38,12.82 39.82,12.68 39.46,12.42 C39.1,12.14 38.84,11.64 38.72,10.94 L36.64,10.94 C36.88,13.34 38.4,14.56 41.24,14.56 C44.3,14.56 45.84,13.46 45.84,11.28 C45.84,10.36 45.42,9.64 44.6,9.12 C44.04,8.76 43.16,8.42 41.98,8.14 C40.94,7.88 40.26,7.68 39.9,7.52 C39.34,7.26 39.06,6.96 39.06,6.6 C39.06,6.2 39.24,5.88 39.62,5.68 C39.94,5.48 40.42,5.4 41.06,5.4 C41.78,5.4 42.34,5.52 42.7,5.76 C43.04,5.98 43.28,6.36 43.44,6.92 L45.5,6.92 C45.26,4.74 43.78,3.66 41.1,3.66 Z" id="路径"></path>
                            </g>
                        </g>
                    </g>
                </g>
            </g>
        </g>
    </g>
</svg>